<svg version="1" xmlns="http://www.w3.org/2000/svg" width="933.333" height="933.333" viewBox="0 0 700.000000 700.000000"><path d="M0 350v350h700V0H0v350zm465.1-146.8c0 60.8.1 64.2 1.7 61.8 9.9-14.4 20.4-24.1 32.7-30 21.2-10.3 52.1-11.7 74.2-3.5 20.2 7.6 38.4 24.8 50.1 47.2 20.6 39.7 21.2 103.4 1.2 143.4-10.8 21.7-27.5 38.8-46.2 47.3-10.9 5-18.7 6.7-33.8 7.3-20.6.8-38.8-3.4-52.6-12.2-7.3-4.7-18.9-16.2-23.5-23.4l-3.4-5.4-.3 17.7-.2 17.6h-39V139h39l.1 64.2zM254 228.5c20.9 5.1 37.8 16.5 48.6 32.9l3.9 5.9.3-17.6.2-17.7h39.1l-.4 117.2c-.2 104.7-.5 118.3-2 126.3-7 38.1-22.3 61.2-49.1 74.5-18.2 9-39.9 12.8-67.5 11.7-8.6-.4-20.3-1.4-26.1-2.3-11.2-1.7-30.7-6.4-36.5-8.8l-3.5-1.5V511l7.8 3.9c27.3 13.7 61.3 18.1 88.2 11.5 18.1-4.5 33.2-16.5 40.8-32.4 6.7-14.1 9.6-30.8 9-52.4l-.3-11.9-3.9 5.9c-11 16.7-28 28.1-49.4 33.1-11.5 2.7-35.9 2.5-46.7-.4-37.4-9.9-63.4-41.8-71.6-87.9-2.8-15.5-3-44.7-.5-60.5 7.7-49 36.8-84.6 75.1-91.7 3.3-.7 6.9-1.4 8-1.6 4.1-1 30.2.4 36.5 1.9z"/><path d="M517.3 260.5c-28.3 6.2-47.2 33.1-51.2 72.9-5.1 50.5 9.9 91.4 38.4 104.7 3.3 1.6 8.7 3.5 12 4.4 7.6 1.9 23.3 1.9 31 0 34.2-8.7 53.7-46.3 51.1-98.6-2.3-46.6-21.3-76.9-52.4-83.5-8.3-1.7-20.7-1.7-28.9.1zM224.2 260.5c-32.5 7.1-51.2 39.3-51.2 88 0 22.4 3.3 39.2 10.5 54 11.5 23.7 30.1 35.4 56.3 35.5 37.2.1 61.2-26.2 66.2-72.2 2.9-27-.7-52-10.1-71.6-11.2-23.3-30.7-35.4-56.6-35.1-4.8 0-11.6.7-15.1 1.4z"/></svg>